<?xml version="1.0" encoding="utf-8"?>
<!-- Generator: Adobe Illustrator 23.0.6, SVG Export Plug-In . SVG Version: 6.00 Build 0)  -->
<svg version="1.1" id="Layer_1" xmlns="http://www.w3.org/2000/svg" xmlns:xlink="http://www.w3.org/1999/xlink" x="0px" y="0px"
	 viewBox="0 0 112.91 14.46" style="enable-background:new 0 0 112.91 14.46;" xml:space="preserve">
<style type="text/css">
	.st0{fill:#FF395C;}
</style>
<g>
	<path class="st0" d="M7.29,8.22c0,1.84-1.45,2.72-3.45,2.72c-1.62,0-3.49-0.93-3.49-2.75c0-0.3,0.08-0.36,0.38-0.36h1.26
		c0.3,0,0.44,0.04,0.47,0.36C2.46,8.37,2.53,8.54,2.7,8.73c0.26,0.31,0.79,0.43,1.27,0.43c0.7,0,1.27-0.16,1.27-0.88
		c0-0.73-1.15-0.74-2.26-1.09C1.67,6.77,0.47,6.25,0.47,4.61c0-1.69,1.53-2.52,3.15-2.58c1.65,0,3.45,0.75,3.45,2.46
		c0,0.31-0.08,0.36-0.38,0.36H5.42c-0.25,0-0.29-0.18-0.35-0.35C5.02,4.37,4.95,4.27,4.8,4.11C4.55,3.88,4.09,3.76,3.7,3.76
		c-0.43,0-1.14,0.17-1.14,0.75c0,0.79,1.91,1.08,2.43,1.28C5.91,6.08,7.29,6.46,7.29,8.22z"/>
	<path class="st0" d="M15.51,2.58l-2.67,4.97v2.83c0,0.3-0.14,0.38-0.38,0.38h-1.3c-0.25,0-0.38-0.08-0.38-0.38V7.55L8.01,2.58
		C7.95,2.44,7.97,2.22,8.22,2.22h1.49c0.3,0,0.43,0.04,0.61,0.39l1.52,2.79l1.47-2.79c0.17-0.35,0.3-0.39,0.6-0.39h1.4
		C15.55,2.22,15.57,2.44,15.51,2.58z"/>
	<path class="st0" d="M23.43,10.75H21.9c-0.31,0-0.47-0.12-0.65-0.39l-1.4-2.09c-0.12-0.16-0.14-0.3-0.14-0.66V6.58
		c0-0.23,0.08-0.38,0.38-0.38h0.26c0.64,0,1.23-0.44,1.23-1.05c0-0.67-0.52-1.1-1.19-1.1h-1.73v6.33c0,0.3-0.14,0.38-0.38,0.38H17
		c-0.23,0-0.36-0.08-0.36-0.38V2.61c0-0.23,0.06-0.38,0.36-0.38h3.27c1.41,0,2.04,0.29,2.58,0.83c0.48,0.47,0.75,1.21,0.75,2.04
		c0,1.36-1,2.31-1.8,2.58l1.83,2.66C23.74,10.52,23.68,10.75,23.43,10.75z"/>
	<path class="st0" d="M29.35,9.35v1.03c0,0.23-0.08,0.38-0.38,0.38h-3.67c-0.3,0-0.38-0.14-0.38-0.38V9.35
		c0-0.23,0.08-0.38,0.38-0.38h0.82V4.02h-0.79c-0.3,0-0.38-0.14-0.38-0.38V2.6c0-0.23,0.08-0.38,0.38-0.38h3.61
		c0.3,0,0.38,0.14,0.38,0.38v1.05c0,0.23-0.08,0.38-0.38,0.38h-0.78v4.95h0.82C29.27,8.98,29.35,9.12,29.35,9.35z"/>
	<path class="st0" d="M38.14,10.75h-1.36c-0.29,0-0.39-0.08-0.49-0.39l-0.36-1.03h-3.18l-0.36,1.03c-0.1,0.31-0.21,0.39-0.49,0.39
		h-1.36c-0.29,0-0.29-0.21-0.22-0.36l2.88-7.77c0.1-0.27,0.25-0.4,0.53-0.4h1.25c0.29,0,0.42,0.13,0.53,0.4l2.87,7.77
		C38.43,10.55,38.43,10.75,38.14,10.75z M35.31,7.52l-0.97-2.87l-0.97,2.87H35.31z"/>
	<path class="st0" d="M50.07,2.6l-2.78,7.77c-0.16,0.34-0.25,0.39-0.53,0.39h-1.25c-0.29,0-0.38-0.05-0.53-0.39L42.2,2.6
		c-0.06-0.17-0.01-0.38,0.23-0.38h1.44c0.34,0,0.43,0.1,0.53,0.42L46.17,8l1.75-5.37c0.1-0.31,0.19-0.42,0.54-0.42h1.37
		C50.08,2.22,50.13,2.43,50.07,2.6z"/>
	<path class="st0" d="M57.85,10.75h-1.36c-0.29,0-0.39-0.08-0.49-0.39l-0.36-1.03h-3.18l-0.36,1.03c-0.1,0.31-0.21,0.39-0.49,0.39
		h-1.36c-0.29,0-0.29-0.21-0.22-0.36l2.88-7.77c0.1-0.27,0.25-0.4,0.53-0.4h1.25c0.29,0,0.42,0.13,0.53,0.4l2.87,7.77
		C58.13,10.55,58.13,10.75,57.85,10.75z M55.02,7.52l-0.97-2.87l-0.97,2.87H55.02z"/>
	<path class="st0" d="M62.42,10.95c-1.54,0-3.48-0.89-3.48-2.93V4.96c0-2.04,1.93-2.93,3.48-2.93c1.61,0,3.2,0.82,3.37,2.46
		c0,0.31-0.1,0.38-0.4,0.38h-1.25c-0.27,0-0.29-0.25-0.39-0.4c-0.27-0.43-0.64-0.62-1.34-0.62c-0.86,0-1.44,0.48-1.44,1.3v2.7
		c0,0.83,0.58,1.3,1.44,1.3c0.7,0,1.26-0.26,1.36-0.88c0.04-0.26,0.06-0.47,0.35-0.47h1.27c0.29,0,0.39,0.13,0.39,0.44
		C65.79,9.9,64.03,10.95,62.42,10.95z"/>
	<path class="st0" d="M74.53,10.75h-1.36c-0.29,0-0.39-0.08-0.49-0.39l-0.36-1.03h-3.18l-0.36,1.03c-0.1,0.31-0.21,0.39-0.49,0.39
		h-1.36c-0.29,0-0.29-0.21-0.22-0.36l2.88-7.77c0.1-0.27,0.25-0.4,0.53-0.4h1.25c0.29,0,0.42,0.13,0.53,0.4l2.87,7.77
		C74.82,10.55,74.82,10.75,74.53,10.75z M71.7,7.52l-0.97-2.87l-0.97,2.87H71.7z"/>
	<path class="st0" d="M81.5,2.6v1.08c0,0.23-0.08,0.38-0.38,0.38h-1.98v6.33c0,0.3-0.14,0.38-0.38,0.38h-1.28
		c-0.23,0-0.38-0.08-0.38-0.38V4.05h-2c-0.3,0-0.38-0.14-0.38-0.38V2.6c0-0.23,0.08-0.38,0.38-0.38h6.02
		C81.43,2.22,81.5,2.36,81.5,2.6z"/>
	<path class="st0" d="M86.88,9.35v1.03c0,0.23-0.08,0.38-0.38,0.38h-3.67c-0.3,0-0.38-0.14-0.38-0.38V9.35
		c0-0.23,0.08-0.38,0.38-0.38h0.82V4.02h-0.79c-0.3,0-0.38-0.14-0.38-0.38V2.6c0-0.23,0.08-0.38,0.38-0.38h3.61
		c0.3,0,0.38,0.14,0.38,0.38v1.05c0,0.23-0.08,0.38-0.38,0.38h-0.78v4.95h0.82C86.81,8.98,86.88,9.12,86.88,9.35z"/>
	<path class="st0" d="M95.26,8.02c0,2.05-1.95,2.93-3.49,2.93c-1.54,0-3.46-0.88-3.46-2.93V4.96c0-2.05,1.92-2.93,3.46-2.93
		c1.54,0,3.49,0.88,3.49,2.93V8.02z M93.22,5.14c0-0.83-0.6-1.31-1.45-1.31c-0.84,0-1.44,0.48-1.44,1.31v2.7
		c0,0.83,0.6,1.31,1.44,1.31c0.86,0,1.45-0.48,1.45-1.31V5.14z"/>
	<path class="st0" d="M103.84,2.6v7.78c0,0.23-0.08,0.38-0.38,0.38h-1.18c-0.32,0-0.42-0.18-0.58-0.44l-2.75-4.45v4.51
		c0,0.3-0.14,0.38-0.38,0.38h-1.28c-0.23,0-0.38-0.08-0.38-0.38V2.6c0-0.23,0.08-0.38,0.38-0.38h1.22c0.32,0,0.42,0.18,0.58,0.44
		l2.75,4.44V2.6c0-0.3,0.14-0.38,0.38-0.38h1.25C103.7,2.22,103.84,2.3,103.84,2.6z"/>
	<path class="st0" d="M112.36,8.22c0,1.84-1.45,2.72-3.45,2.72c-1.62,0-3.49-0.93-3.49-2.75c0-0.3,0.08-0.36,0.38-0.36h1.26
		c0.3,0,0.44,0.04,0.47,0.36c0.01,0.17,0.08,0.34,0.25,0.53c0.26,0.31,0.79,0.43,1.27,0.43c0.7,0,1.27-0.16,1.27-0.88
		c0-0.73-1.15-0.74-2.26-1.09c-1.31-0.42-2.52-0.93-2.52-2.58c0-1.69,1.53-2.52,3.15-2.58c1.65,0,3.45,0.75,3.45,2.46
		c0,0.31-0.08,0.36-0.38,0.36h-1.27c-0.25,0-0.29-0.18-0.35-0.35c-0.05-0.13-0.12-0.23-0.27-0.39c-0.25-0.23-0.71-0.35-1.1-0.35
		c-0.43,0-1.14,0.17-1.14,0.75c0,0.79,1.91,1.08,2.43,1.28C110.98,6.08,112.36,6.46,112.36,8.22z"/>
</g>
</svg>
